<mxfile host="Electron" agent="Mozilla/5.0 (Windows NT 10.0; Win64; x64) AppleWebKit/537.36 (KHTML, like Gecko) draw.io/28.1.2 Chrome/138.0.7204.243 Electron/37.4.0 Safari/537.36" version="28.1.2">
  <diagram name="PÃ¡gina-1" id="yMN2R970tdEyCZdogHUm">
    <mxGraphModel dx="2011" dy="1176" grid="1" gridSize="10" guides="1" tooltips="1" connect="1" arrows="1" fold="1" page="1" pageScale="1" pageWidth="827" pageHeight="1169" math="0" shadow="0">
      <root>
        <mxCell id="wq5FVe9Nyy9I_SddA6Sb-0" />
        <mxCell id="wq5FVe9Nyy9I_SddA6Sb-1" parent="wq5FVe9Nyy9I_SddA6Sb-0" />
        <mxCell id="wq5FVe9Nyy9I_SddA6Sb-3" value="start" style="rounded=0;whiteSpace=wrap;html=1;" vertex="1" parent="wq5FVe9Nyy9I_SddA6Sb-1">
          <mxGeometry x="450" y="54" width="120" height="60" as="geometry" />
        </mxCell>
        <mxCell id="wq5FVe9Nyy9I_SddA6Sb-6" value="router" style="rounded=0;whiteSpace=wrap;html=1;fillColor=#60a917;fontColor=#ffffff;strokeColor=#2D7600;" vertex="1" parent="wq5FVe9Nyy9I_SddA6Sb-1">
          <mxGeometry x="450" y="145" width="120" height="60" as="geometry" />
        </mxCell>
        <mxCell id="wq5FVe9Nyy9I_SddA6Sb-8" value="start" style="rounded=0;whiteSpace=wrap;html=1;" vertex="1" parent="wq5FVe9Nyy9I_SddA6Sb-1">
          <mxGeometry x="450" y="429.5" width="120" height="30" as="geometry" />
        </mxCell>
        <mxCell id="wq5FVe9Nyy9I_SddA6Sb-9" style="edgeStyle=orthogonalEdgeStyle;rounded=0;orthogonalLoop=1;jettySize=auto;html=1;entryX=0;entryY=0.5;entryDx=0;entryDy=0;" edge="1" parent="wq5FVe9Nyy9I_SddA6Sb-1" source="wq5FVe9Nyy9I_SddA6Sb-10" target="wq5FVe9Nyy9I_SddA6Sb-12">
          <mxGeometry relative="1" as="geometry">
            <mxPoint x="604" y="505.5" as="targetPoint" />
          </mxGeometry>
        </mxCell>
        <mxCell id="wq5FVe9Nyy9I_SddA6Sb-10" value="sq_node" style="rounded=0;whiteSpace=wrap;html=1;" vertex="1" parent="wq5FVe9Nyy9I_SddA6Sb-1">
          <mxGeometry x="450" y="490.5" width="120" height="30" as="geometry" />
        </mxCell>
        <mxCell id="ncL1PexQsINka4UEdf1l-0" style="edgeStyle=orthogonalEdgeStyle;rounded=0;orthogonalLoop=1;jettySize=auto;html=1;entryX=0.5;entryY=0;entryDx=0;entryDy=0;" edge="1" parent="wq5FVe9Nyy9I_SddA6Sb-1" source="wq5FVe9Nyy9I_SddA6Sb-12" target="wq5FVe9Nyy9I_SddA6Sb-14">
          <mxGeometry relative="1" as="geometry" />
        </mxCell>
        <mxCell id="wq5FVe9Nyy9I_SddA6Sb-12" value="solve_subquestion" style="rhombus;whiteSpace=wrap;html=1;" vertex="1" parent="wq5FVe9Nyy9I_SddA6Sb-1">
          <mxGeometry x="613" y="483.5" width="130" height="45" as="geometry" />
        </mxCell>
        <mxCell id="wq5FVe9Nyy9I_SddA6Sb-14" value="agent_subquestion" style="rhombus;whiteSpace=wrap;html=1;fillColor=#60a917;fontColor=#ffffff;strokeColor=#2D7600;" vertex="1" parent="wq5FVe9Nyy9I_SddA6Sb-1">
          <mxGeometry x="613" y="562.5" width="130" height="50" as="geometry" />
        </mxCell>
        <mxCell id="wq5FVe9Nyy9I_SddA6Sb-15" value="prompt&lt;div&gt;chain_subquestion&lt;/div&gt;" style="rounded=0;whiteSpace=wrap;html=1;fillColor=#1ba1e2;fontColor=#ffffff;strokeColor=#006EAF;" vertex="1" parent="wq5FVe9Nyy9I_SddA6Sb-1">
          <mxGeometry x="797" y="563" width="120" height="50" as="geometry" />
        </mxCell>
        <mxCell id="wq5FVe9Nyy9I_SddA6Sb-16" value="" style="endArrow=classic;startArrow=classic;html=1;rounded=0;exitX=0;exitY=0.5;exitDx=0;exitDy=0;entryX=1;entryY=0.5;entryDx=0;entryDy=0;" edge="1" parent="wq5FVe9Nyy9I_SddA6Sb-1" source="wq5FVe9Nyy9I_SddA6Sb-15" target="wq5FVe9Nyy9I_SddA6Sb-14">
          <mxGeometry width="50" height="50" relative="1" as="geometry">
            <mxPoint x="589" y="698.5" as="sourcePoint" />
            <mxPoint x="639" y="648.5" as="targetPoint" />
          </mxGeometry>
        </mxCell>
        <mxCell id="wq5FVe9Nyy9I_SddA6Sb-17" value="column_node" style="rounded=0;whiteSpace=wrap;html=1;" vertex="1" parent="wq5FVe9Nyy9I_SddA6Sb-1">
          <mxGeometry x="450" y="653.5" width="120" height="30" as="geometry" />
        </mxCell>
        <mxCell id="wq5FVe9Nyy9I_SddA6Sb-19" value="solve_column_selection" style="rhombus;whiteSpace=wrap;html=1;" vertex="1" parent="wq5FVe9Nyy9I_SddA6Sb-1">
          <mxGeometry x="602" y="643.5" width="156" height="50" as="geometry" />
        </mxCell>
        <mxCell id="wq5FVe9Nyy9I_SddA6Sb-21" value="agent_column_selection" style="rhombus;whiteSpace=wrap;html=1;fillColor=#60a917;fontColor=#ffffff;strokeColor=#2D7600;" vertex="1" parent="wq5FVe9Nyy9I_SddA6Sb-1">
          <mxGeometry x="602" y="731.5" width="156" height="50" as="geometry" />
        </mxCell>
        <mxCell id="wq5FVe9Nyy9I_SddA6Sb-22" value="prompt&lt;div&gt;chain_column_extractor&lt;/div&gt;" style="rounded=0;whiteSpace=wrap;html=1;fillColor=#1ba1e2;fontColor=#ffffff;strokeColor=#006EAF;" vertex="1" parent="wq5FVe9Nyy9I_SddA6Sb-1">
          <mxGeometry x="808" y="731" width="150" height="50" as="geometry" />
        </mxCell>
        <mxCell id="wq5FVe9Nyy9I_SddA6Sb-23" value="" style="endArrow=classic;startArrow=classic;html=1;rounded=0;exitX=0;exitY=0.5;exitDx=0;exitDy=0;entryX=1;entryY=0.5;entryDx=0;entryDy=0;" edge="1" parent="wq5FVe9Nyy9I_SddA6Sb-1" source="wq5FVe9Nyy9I_SddA6Sb-22" target="wq5FVe9Nyy9I_SddA6Sb-21">
          <mxGeometry width="50" height="50" relative="1" as="geometry">
            <mxPoint x="532" y="659.5" as="sourcePoint" />
            <mxPoint x="742.9999999999998" y="720.5" as="targetPoint" />
          </mxGeometry>
        </mxCell>
        <mxCell id="wq5FVe9Nyy9I_SddA6Sb-25" value="end" style="rounded=0;whiteSpace=wrap;html=1;" vertex="1" parent="wq5FVe9Nyy9I_SddA6Sb-1">
          <mxGeometry x="450" y="741.5" width="120" height="30" as="geometry" />
        </mxCell>
        <mxCell id="wq5FVe9Nyy9I_SddA6Sb-26" style="edgeStyle=orthogonalEdgeStyle;rounded=0;orthogonalLoop=1;jettySize=auto;html=1;entryX=0;entryY=0.5;entryDx=0;entryDy=0;" edge="1" parent="wq5FVe9Nyy9I_SddA6Sb-1" source="wq5FVe9Nyy9I_SddA6Sb-29" target="wq5FVe9Nyy9I_SddA6Sb-33">
          <mxGeometry relative="1" as="geometry" />
        </mxCell>
        <mxCell id="wq5FVe9Nyy9I_SddA6Sb-27" style="edgeStyle=orthogonalEdgeStyle;rounded=0;orthogonalLoop=1;jettySize=auto;html=1;entryX=0.5;entryY=0;entryDx=0;entryDy=0;exitX=0.75;exitY=1;exitDx=0;exitDy=0;" edge="1" parent="wq5FVe9Nyy9I_SddA6Sb-1" source="wq5FVe9Nyy9I_SddA6Sb-29" target="wq5FVe9Nyy9I_SddA6Sb-35">
          <mxGeometry relative="1" as="geometry">
            <Array as="points">
              <mxPoint x="540" y="930" />
              <mxPoint x="630" y="930" />
            </Array>
          </mxGeometry>
        </mxCell>
        <mxCell id="wq5FVe9Nyy9I_SddA6Sb-28" style="edgeStyle=orthogonalEdgeStyle;rounded=0;orthogonalLoop=1;jettySize=auto;html=1;entryX=0.5;entryY=0;entryDx=0;entryDy=0;" edge="1" parent="wq5FVe9Nyy9I_SddA6Sb-1" source="wq5FVe9Nyy9I_SddA6Sb-29" target="wq5FVe9Nyy9I_SddA6Sb-43">
          <mxGeometry relative="1" as="geometry" />
        </mxCell>
        <mxCell id="wq5FVe9Nyy9I_SddA6Sb-29" value="filter_cheq" style="rounded=0;whiteSpace=wrap;html=1;fillColor=#60a917;fontColor=#ffffff;strokeColor=#2D7600;" vertex="1" parent="wq5FVe9Nyy9I_SddA6Sb-1">
          <mxGeometry x="450" y="822" width="120" height="60" as="geometry" />
        </mxCell>
        <mxCell id="pvVvnweU8bJruUa9JsGr-10" style="edgeStyle=orthogonalEdgeStyle;rounded=0;orthogonalLoop=1;jettySize=auto;html=1;" edge="1" parent="wq5FVe9Nyy9I_SddA6Sb-1" source="wq5FVe9Nyy9I_SddA6Sb-30" target="wq5FVe9Nyy9I_SddA6Sb-29">
          <mxGeometry relative="1" as="geometry" />
        </mxCell>
        <mxCell id="wq5FVe9Nyy9I_SddA6Sb-30" value="prompt&lt;div&gt;chain_filter_extractor&lt;/div&gt;" style="rounded=0;whiteSpace=wrap;html=1;fillColor=#1ba1e2;fontColor=#ffffff;strokeColor=#006EAF;" vertex="1" parent="wq5FVe9Nyy9I_SddA6Sb-1">
          <mxGeometry x="254" y="831.5" width="140" height="40" as="geometry" />
        </mxCell>
        <mxCell id="pvVvnweU8bJruUa9JsGr-14" style="edgeStyle=orthogonalEdgeStyle;rounded=0;orthogonalLoop=1;jettySize=auto;html=1;entryX=0;entryY=0.5;entryDx=0;entryDy=0;" edge="1" parent="wq5FVe9Nyy9I_SddA6Sb-1" source="wq5FVe9Nyy9I_SddA6Sb-33" target="wq5FVe9Nyy9I_SddA6Sb-48">
          <mxGeometry relative="1" as="geometry" />
        </mxCell>
        <mxCell id="wq5FVe9Nyy9I_SddA6Sb-33" value="filter_cheq" style="rhombus;whiteSpace=wrap;html=1;" vertex="1" parent="wq5FVe9Nyy9I_SddA6Sb-1">
          <mxGeometry x="604" y="829.5" width="130" height="45" as="geometry" />
        </mxCell>
        <mxCell id="pvVvnweU8bJruUa9JsGr-15" style="edgeStyle=orthogonalEdgeStyle;rounded=0;orthogonalLoop=1;jettySize=auto;html=1;entryX=0;entryY=0.5;entryDx=0;entryDy=0;" edge="1" parent="wq5FVe9Nyy9I_SddA6Sb-1" source="wq5FVe9Nyy9I_SddA6Sb-35" target="wq5FVe9Nyy9I_SddA6Sb-37">
          <mxGeometry relative="1" as="geometry" />
        </mxCell>
        <mxCell id="wq5FVe9Nyy9I_SddA6Sb-35" value="fuzzy" style="rounded=0;whiteSpace=wrap;html=1;" vertex="1" parent="wq5FVe9Nyy9I_SddA6Sb-1">
          <mxGeometry x="570" y="950" width="120" height="60" as="geometry" />
        </mxCell>
        <mxCell id="pvVvnweU8bJruUa9JsGr-16" style="edgeStyle=orthogonalEdgeStyle;rounded=0;orthogonalLoop=1;jettySize=auto;html=1;entryX=0;entryY=0.5;entryDx=0;entryDy=0;" edge="1" parent="wq5FVe9Nyy9I_SddA6Sb-1" source="wq5FVe9Nyy9I_SddA6Sb-37" target="wq5FVe9Nyy9I_SddA6Sb-39">
          <mxGeometry relative="1" as="geometry" />
        </mxCell>
        <mxCell id="wq5FVe9Nyy9I_SddA6Sb-37" value="call_match" style="rhombus;whiteSpace=wrap;html=1;" vertex="1" parent="wq5FVe9Nyy9I_SddA6Sb-1">
          <mxGeometry x="720" y="950" width="130" height="60" as="geometry" />
        </mxCell>
        <mxCell id="pvVvnweU8bJruUa9JsGr-17" style="edgeStyle=orthogonalEdgeStyle;rounded=0;orthogonalLoop=1;jettySize=auto;html=1;entryX=0;entryY=0.5;entryDx=0;entryDy=0;" edge="1" parent="wq5FVe9Nyy9I_SddA6Sb-1" source="wq5FVe9Nyy9I_SddA6Sb-39" target="wq5FVe9Nyy9I_SddA6Sb-40">
          <mxGeometry relative="1" as="geometry" />
        </mxCell>
        <mxCell id="wq5FVe9Nyy9I_SddA6Sb-39" value="get_value" style="rhombus;whiteSpace=wrap;html=1;" vertex="1" parent="wq5FVe9Nyy9I_SddA6Sb-1">
          <mxGeometry x="880" y="950" width="160" height="60" as="geometry" />
        </mxCell>
        <mxCell id="wq5FVe9Nyy9I_SddA6Sb-40" value="get_best_fuzzy_match" style="rhombus;whiteSpace=wrap;html=1;" vertex="1" parent="wq5FVe9Nyy9I_SddA6Sb-1">
          <mxGeometry x="1078" y="950" width="160" height="60" as="geometry" />
        </mxCell>
        <mxCell id="wq5FVe9Nyy9I_SddA6Sb-41" style="edgeStyle=orthogonalEdgeStyle;rounded=0;orthogonalLoop=1;jettySize=auto;html=1;entryX=0;entryY=0.5;entryDx=0;entryDy=0;" edge="1" parent="wq5FVe9Nyy9I_SddA6Sb-1" source="wq5FVe9Nyy9I_SddA6Sb-43" target="wq5FVe9Nyy9I_SddA6Sb-50">
          <mxGeometry relative="1" as="geometry" />
        </mxCell>
        <mxCell id="wq5FVe9Nyy9I_SddA6Sb-42" style="edgeStyle=orthogonalEdgeStyle;rounded=0;orthogonalLoop=1;jettySize=auto;html=1;entryX=0.5;entryY=0;entryDx=0;entryDy=0;" edge="1" parent="wq5FVe9Nyy9I_SddA6Sb-1" source="wq5FVe9Nyy9I_SddA6Sb-43" target="wq5FVe9Nyy9I_SddA6Sb-63">
          <mxGeometry relative="1" as="geometry" />
        </mxCell>
        <mxCell id="wq5FVe9Nyy9I_SddA6Sb-43" value="sql_generator" style="rounded=0;whiteSpace=wrap;html=1;fillColor=#60a917;fontColor=#ffffff;strokeColor=#2D7600;" vertex="1" parent="wq5FVe9Nyy9I_SddA6Sb-1">
          <mxGeometry x="450" y="1042" width="120" height="60" as="geometry" />
        </mxCell>
        <mxCell id="wq5FVe9Nyy9I_SddA6Sb-44" value="&lt;h1 style=&quot;margin-top: 0px;&quot;&gt;si&lt;/h1&gt;" style="text;html=1;whiteSpace=wrap;overflow=hidden;rounded=0;fontSize=8;" vertex="1" parent="wq5FVe9Nyy9I_SddA6Sb-1">
          <mxGeometry x="550" y="891" width="20" height="30" as="geometry" />
        </mxCell>
        <mxCell id="wq5FVe9Nyy9I_SddA6Sb-45" value="&lt;h1 style=&quot;margin-top: 0px;&quot;&gt;no&lt;/h1&gt;" style="text;html=1;whiteSpace=wrap;overflow=hidden;rounded=0;fontSize=8;" vertex="1" parent="wq5FVe9Nyy9I_SddA6Sb-1">
          <mxGeometry x="480" y="891" width="20" height="30" as="geometry" />
        </mxCell>
        <mxCell id="wq5FVe9Nyy9I_SddA6Sb-46" style="edgeStyle=orthogonalEdgeStyle;rounded=0;orthogonalLoop=1;jettySize=auto;html=1;entryX=0.696;entryY=0.027;entryDx=0;entryDy=0;entryPerimeter=0;exitX=0;exitY=0.5;exitDx=0;exitDy=0;" edge="1" parent="wq5FVe9Nyy9I_SddA6Sb-1" source="wq5FVe9Nyy9I_SddA6Sb-35" target="wq5FVe9Nyy9I_SddA6Sb-43">
          <mxGeometry relative="1" as="geometry" />
        </mxCell>
        <mxCell id="pvVvnweU8bJruUa9JsGr-18" style="edgeStyle=orthogonalEdgeStyle;rounded=0;orthogonalLoop=1;jettySize=auto;html=1;entryX=0;entryY=0.5;entryDx=0;entryDy=0;" edge="1" parent="wq5FVe9Nyy9I_SddA6Sb-1" source="wq5FVe9Nyy9I_SddA6Sb-47" target="wq5FVe9Nyy9I_SddA6Sb-43">
          <mxGeometry relative="1" as="geometry" />
        </mxCell>
        <mxCell id="wq5FVe9Nyy9I_SddA6Sb-47" value="prompt&lt;div&gt;chain_query_extractor&lt;/div&gt;" style="rounded=0;whiteSpace=wrap;html=1;fillColor=#1ba1e2;fontColor=#ffffff;strokeColor=#006EAF;" vertex="1" parent="wq5FVe9Nyy9I_SddA6Sb-1">
          <mxGeometry x="250" y="1047" width="140" height="50" as="geometry" />
        </mxCell>
        <mxCell id="wq5FVe9Nyy9I_SddA6Sb-48" value="remove_duplicate" style="rhombus;whiteSpace=wrap;html=1;" vertex="1" parent="wq5FVe9Nyy9I_SddA6Sb-1">
          <mxGeometry x="770" y="829" width="130" height="45" as="geometry" />
        </mxCell>
        <mxCell id="wq5FVe9Nyy9I_SddA6Sb-50" value="query_generator" style="rhombus;whiteSpace=wrap;html=1;" vertex="1" parent="wq5FVe9Nyy9I_SddA6Sb-1">
          <mxGeometry x="609" y="1049.5" width="130" height="45" as="geometry" />
        </mxCell>
        <mxCell id="wq5FVe9Nyy9I_SddA6Sb-53" style="edgeStyle=orthogonalEdgeStyle;rounded=0;orthogonalLoop=1;jettySize=auto;html=1;entryX=0.5;entryY=0;entryDx=0;entryDy=0;" edge="1" parent="wq5FVe9Nyy9I_SddA6Sb-1" source="wq5FVe9Nyy9I_SddA6Sb-54" target="wq5FVe9Nyy9I_SddA6Sb-58">
          <mxGeometry relative="1" as="geometry">
            <mxPoint x="510" y="314" as="targetPoint" />
          </mxGeometry>
        </mxCell>
        <mxCell id="wq5FVe9Nyy9I_SddA6Sb-54" value="route_request" style="rounded=0;whiteSpace=wrap;html=1;" vertex="1" parent="wq5FVe9Nyy9I_SddA6Sb-1">
          <mxGeometry x="450" y="231" width="120" height="60" as="geometry" />
        </mxCell>
        <mxCell id="wq5FVe9Nyy9I_SddA6Sb-56" value="customer" style="rounded=0;whiteSpace=wrap;html=1;fillColor=#60a917;fontColor=#ffffff;strokeColor=#2D7600;" vertex="1" parent="wq5FVe9Nyy9I_SddA6Sb-1">
          <mxGeometry x="337" y="337" width="90" height="60" as="geometry" />
        </mxCell>
        <mxCell id="wq5FVe9Nyy9I_SddA6Sb-58" value="product" style="rounded=0;whiteSpace=wrap;html=1;fillColor=#60a917;fontColor=#ffffff;strokeColor=#2D7600;" vertex="1" parent="wq5FVe9Nyy9I_SddA6Sb-1">
          <mxGeometry x="465" y="337" width="90" height="60" as="geometry" />
        </mxCell>
        <mxCell id="wq5FVe9Nyy9I_SddA6Sb-60" value="order" style="rounded=0;whiteSpace=wrap;html=1;fillColor=#60a917;fontColor=#ffffff;strokeColor=#2D7600;" vertex="1" parent="wq5FVe9Nyy9I_SddA6Sb-1">
          <mxGeometry x="592" y="337" width="86" height="60" as="geometry" />
        </mxCell>
        <mxCell id="pvVvnweU8bJruUa9JsGr-12" style="edgeStyle=orthogonalEdgeStyle;rounded=0;orthogonalLoop=1;jettySize=auto;html=1;entryX=0;entryY=0.5;entryDx=0;entryDy=0;" edge="1" parent="wq5FVe9Nyy9I_SddA6Sb-1" source="wq5FVe9Nyy9I_SddA6Sb-61" target="wq5FVe9Nyy9I_SddA6Sb-6">
          <mxGeometry relative="1" as="geometry" />
        </mxCell>
        <mxCell id="wq5FVe9Nyy9I_SddA6Sb-61" value="prompt&lt;div&gt;chain_router&lt;/div&gt;" style="rounded=0;whiteSpace=wrap;html=1;fillColor=#1ba1e2;fontColor=#ffffff;strokeColor=#006EAF;" vertex="1" parent="wq5FVe9Nyy9I_SddA6Sb-1">
          <mxGeometry x="230" y="150" width="140" height="50" as="geometry" />
        </mxCell>
        <mxCell id="wq5FVe9Nyy9I_SddA6Sb-62" style="edgeStyle=orthogonalEdgeStyle;rounded=0;orthogonalLoop=1;jettySize=auto;html=1;entryX=0.5;entryY=0;entryDx=0;entryDy=0;" edge="1" parent="wq5FVe9Nyy9I_SddA6Sb-1" source="wq5FVe9Nyy9I_SddA6Sb-63" target="wq5FVe9Nyy9I_SddA6Sb-64">
          <mxGeometry relative="1" as="geometry" />
        </mxCell>
        <mxCell id="wq5FVe9Nyy9I_SddA6Sb-63" value="query_validation" style="rounded=0;whiteSpace=wrap;html=1;fillColor=#60a917;fontColor=#ffffff;strokeColor=#2D7600;" vertex="1" parent="wq5FVe9Nyy9I_SddA6Sb-1">
          <mxGeometry x="450" y="1134" width="120" height="60" as="geometry" />
        </mxCell>
        <mxCell id="wq5FVe9Nyy9I_SddA6Sb-64" value="final_response" style="rounded=0;whiteSpace=wrap;html=1;fillColor=#60a917;fontColor=#ffffff;strokeColor=#2D7600;" vertex="1" parent="wq5FVe9Nyy9I_SddA6Sb-1">
          <mxGeometry x="450" y="1234" width="120" height="60" as="geometry" />
        </mxCell>
        <mxCell id="wq5FVe9Nyy9I_SddA6Sb-65" style="edgeStyle=orthogonalEdgeStyle;rounded=0;orthogonalLoop=1;jettySize=auto;html=1;entryX=0.5;entryY=0;entryDx=0;entryDy=0;exitX=0.5;exitY=1;exitDx=0;exitDy=0;" edge="1" parent="wq5FVe9Nyy9I_SddA6Sb-1" source="wq5FVe9Nyy9I_SddA6Sb-3" target="wq5FVe9Nyy9I_SddA6Sb-6">
          <mxGeometry relative="1" as="geometry">
            <mxPoint x="510" y="159" as="sourcePoint" />
          </mxGeometry>
        </mxCell>
        <mxCell id="wq5FVe9Nyy9I_SddA6Sb-67" style="edgeStyle=orthogonalEdgeStyle;rounded=0;orthogonalLoop=1;jettySize=auto;html=1;exitX=0.5;exitY=1;exitDx=0;exitDy=0;" edge="1" parent="wq5FVe9Nyy9I_SddA6Sb-1" source="wq5FVe9Nyy9I_SddA6Sb-6" target="wq5FVe9Nyy9I_SddA6Sb-54">
          <mxGeometry relative="1" as="geometry">
            <mxPoint x="510" y="291.0000000000001" as="sourcePoint" />
          </mxGeometry>
        </mxCell>
        <mxCell id="wq5FVe9Nyy9I_SddA6Sb-69" style="edgeStyle=orthogonalEdgeStyle;rounded=0;orthogonalLoop=1;jettySize=auto;html=1;entryX=0.5;entryY=0;entryDx=0;entryDy=0;exitX=0.5;exitY=1;exitDx=0;exitDy=0;" edge="1" parent="wq5FVe9Nyy9I_SddA6Sb-1" source="wq5FVe9Nyy9I_SddA6Sb-54" target="wq5FVe9Nyy9I_SddA6Sb-56">
          <mxGeometry relative="1" as="geometry">
            <mxPoint x="465" y="326" as="sourcePoint" />
          </mxGeometry>
        </mxCell>
        <mxCell id="wq5FVe9Nyy9I_SddA6Sb-71" style="edgeStyle=orthogonalEdgeStyle;rounded=0;orthogonalLoop=1;jettySize=auto;html=1;entryX=0.5;entryY=0;entryDx=0;entryDy=0;exitX=0.5;exitY=1;exitDx=0;exitDy=0;" edge="1" parent="wq5FVe9Nyy9I_SddA6Sb-1" source="wq5FVe9Nyy9I_SddA6Sb-54" target="wq5FVe9Nyy9I_SddA6Sb-60">
          <mxGeometry relative="1" as="geometry">
            <mxPoint x="555" y="326" as="sourcePoint" />
          </mxGeometry>
        </mxCell>
        <mxCell id="wq5FVe9Nyy9I_SddA6Sb-73" style="edgeStyle=orthogonalEdgeStyle;rounded=0;orthogonalLoop=1;jettySize=auto;html=1;entryX=0;entryY=0.5;entryDx=0;entryDy=0;exitX=0.5;exitY=1;exitDx=0;exitDy=0;" edge="1" parent="wq5FVe9Nyy9I_SddA6Sb-1" source="wq5FVe9Nyy9I_SddA6Sb-56" target="wq5FVe9Nyy9I_SddA6Sb-8">
          <mxGeometry relative="1" as="geometry">
            <mxPoint x="382" y="500" as="sourcePoint" />
          </mxGeometry>
        </mxCell>
        <mxCell id="wq5FVe9Nyy9I_SddA6Sb-75" style="edgeStyle=orthogonalEdgeStyle;rounded=0;orthogonalLoop=1;jettySize=auto;html=1;entryX=0.5;entryY=0;entryDx=0;entryDy=0;exitX=0.5;exitY=1;exitDx=0;exitDy=0;" edge="1" parent="wq5FVe9Nyy9I_SddA6Sb-1" source="wq5FVe9Nyy9I_SddA6Sb-58" target="wq5FVe9Nyy9I_SddA6Sb-8">
          <mxGeometry relative="1" as="geometry">
            <mxPoint x="510" y="500" as="sourcePoint" />
          </mxGeometry>
        </mxCell>
        <mxCell id="wq5FVe9Nyy9I_SddA6Sb-77" style="edgeStyle=orthogonalEdgeStyle;rounded=0;orthogonalLoop=1;jettySize=auto;html=1;entryX=1;entryY=0.5;entryDx=0;entryDy=0;exitX=0.553;exitY=0.986;exitDx=0;exitDy=0;exitPerimeter=0;" edge="1" parent="wq5FVe9Nyy9I_SddA6Sb-1" source="wq5FVe9Nyy9I_SddA6Sb-60" target="wq5FVe9Nyy9I_SddA6Sb-8">
          <mxGeometry relative="1" as="geometry">
            <mxPoint x="635" y="500" as="sourcePoint" />
          </mxGeometry>
        </mxCell>
        <mxCell id="wq5FVe9Nyy9I_SddA6Sb-79" style="edgeStyle=orthogonalEdgeStyle;rounded=0;orthogonalLoop=1;jettySize=auto;html=1;entryX=0.5;entryY=0;entryDx=0;entryDy=0;exitX=0.5;exitY=1;exitDx=0;exitDy=0;" edge="1" parent="wq5FVe9Nyy9I_SddA6Sb-1" source="wq5FVe9Nyy9I_SddA6Sb-8" target="wq5FVe9Nyy9I_SddA6Sb-10">
          <mxGeometry relative="1" as="geometry">
            <mxPoint x="510" y="707.5" as="sourcePoint" />
          </mxGeometry>
        </mxCell>
        <mxCell id="wq5FVe9Nyy9I_SddA6Sb-85" style="edgeStyle=orthogonalEdgeStyle;rounded=0;orthogonalLoop=1;jettySize=auto;html=1;entryX=0.5;entryY=0;entryDx=0;entryDy=0;exitX=0;exitY=0.5;exitDx=0;exitDy=0;" edge="1" parent="wq5FVe9Nyy9I_SddA6Sb-1" source="wq5FVe9Nyy9I_SddA6Sb-14" target="wq5FVe9Nyy9I_SddA6Sb-17">
          <mxGeometry relative="1" as="geometry">
            <mxPoint x="510" y="637" as="targetPoint" />
            <mxPoint x="541" y="587.5" as="sourcePoint" />
          </mxGeometry>
        </mxCell>
        <mxCell id="wq5FVe9Nyy9I_SddA6Sb-87" style="edgeStyle=orthogonalEdgeStyle;rounded=0;orthogonalLoop=1;jettySize=auto;html=1;entryX=0;entryY=0.5;entryDx=0;entryDy=0;exitX=1;exitY=0.5;exitDx=0;exitDy=0;" edge="1" parent="wq5FVe9Nyy9I_SddA6Sb-1" source="wq5FVe9Nyy9I_SddA6Sb-17" target="wq5FVe9Nyy9I_SddA6Sb-19">
          <mxGeometry relative="1" as="geometry">
            <mxPoint x="751.5" y="668.2413793103449" as="sourcePoint" />
          </mxGeometry>
        </mxCell>
        <mxCell id="wq5FVe9Nyy9I_SddA6Sb-90" style="edgeStyle=orthogonalEdgeStyle;rounded=0;orthogonalLoop=1;jettySize=auto;html=1;entryX=0.5;entryY=0;entryDx=0;entryDy=0;exitX=0.5;exitY=1;exitDx=0;exitDy=0;" edge="1" parent="wq5FVe9Nyy9I_SddA6Sb-1" source="wq5FVe9Nyy9I_SddA6Sb-19" target="wq5FVe9Nyy9I_SddA6Sb-21">
          <mxGeometry relative="1" as="geometry">
            <mxPoint x="680.0000000000002" y="757.9999999999998" as="sourcePoint" />
          </mxGeometry>
        </mxCell>
        <mxCell id="wq5FVe9Nyy9I_SddA6Sb-92" style="edgeStyle=orthogonalEdgeStyle;rounded=0;orthogonalLoop=1;jettySize=auto;html=1;entryX=1;entryY=0.5;entryDx=0;entryDy=0;exitX=0;exitY=0.5;exitDx=0;exitDy=0;" edge="1" parent="wq5FVe9Nyy9I_SddA6Sb-1" source="wq5FVe9Nyy9I_SddA6Sb-21" target="wq5FVe9Nyy9I_SddA6Sb-25">
          <mxGeometry relative="1" as="geometry">
            <mxPoint x="604" y="756.5172413793105" as="sourcePoint" />
          </mxGeometry>
        </mxCell>
        <mxCell id="wq5FVe9Nyy9I_SddA6Sb-94" style="edgeStyle=orthogonalEdgeStyle;rounded=0;orthogonalLoop=1;jettySize=auto;html=1;exitX=0.5;exitY=1;exitDx=0;exitDy=0;" edge="1" parent="wq5FVe9Nyy9I_SddA6Sb-1" source="wq5FVe9Nyy9I_SddA6Sb-25" target="wq5FVe9Nyy9I_SddA6Sb-29">
          <mxGeometry relative="1" as="geometry">
            <mxPoint x="510" y="1130" as="sourcePoint" />
          </mxGeometry>
        </mxCell>
        <mxCell id="pvVvnweU8bJruUa9JsGr-0" value="prompt&lt;div&gt;customer&lt;/div&gt;" style="rounded=0;whiteSpace=wrap;html=1;fillColor=#1ba1e2;fontColor=#ffffff;strokeColor=#006EAF;" vertex="1" parent="wq5FVe9Nyy9I_SddA6Sb-1">
          <mxGeometry x="958" y="490.5" width="120" height="50" as="geometry" />
        </mxCell>
        <mxCell id="pvVvnweU8bJruUa9JsGr-4" style="edgeStyle=orthogonalEdgeStyle;rounded=0;orthogonalLoop=1;jettySize=auto;html=1;entryX=1;entryY=0.5;entryDx=0;entryDy=0;" edge="1" parent="wq5FVe9Nyy9I_SddA6Sb-1" source="pvVvnweU8bJruUa9JsGr-1" target="wq5FVe9Nyy9I_SddA6Sb-15">
          <mxGeometry relative="1" as="geometry" />
        </mxCell>
        <mxCell id="pvVvnweU8bJruUa9JsGr-1" value="prompt&lt;div&gt;product&lt;/div&gt;" style="rounded=0;whiteSpace=wrap;html=1;fillColor=#1ba1e2;fontColor=#ffffff;strokeColor=#006EAF;" vertex="1" parent="wq5FVe9Nyy9I_SddA6Sb-1">
          <mxGeometry x="958" y="562.5" width="120" height="50" as="geometry" />
        </mxCell>
        <mxCell id="pvVvnweU8bJruUa9JsGr-5" style="edgeStyle=orthogonalEdgeStyle;rounded=0;orthogonalLoop=1;jettySize=auto;html=1;entryX=0.5;entryY=1;entryDx=0;entryDy=0;" edge="1" parent="wq5FVe9Nyy9I_SddA6Sb-1" source="pvVvnweU8bJruUa9JsGr-2" target="wq5FVe9Nyy9I_SddA6Sb-15">
          <mxGeometry relative="1" as="geometry" />
        </mxCell>
        <mxCell id="pvVvnweU8bJruUa9JsGr-2" value="prompt&lt;div&gt;order&lt;/div&gt;" style="rounded=0;whiteSpace=wrap;html=1;fillColor=#1ba1e2;fontColor=#ffffff;strokeColor=#006EAF;" vertex="1" parent="wq5FVe9Nyy9I_SddA6Sb-1">
          <mxGeometry x="958" y="633.5" width="120" height="50" as="geometry" />
        </mxCell>
        <mxCell id="pvVvnweU8bJruUa9JsGr-3" style="edgeStyle=orthogonalEdgeStyle;rounded=0;orthogonalLoop=1;jettySize=auto;html=1;entryX=0.448;entryY=0.072;entryDx=0;entryDy=0;entryPerimeter=0;" edge="1" parent="wq5FVe9Nyy9I_SddA6Sb-1" source="pvVvnweU8bJruUa9JsGr-0" target="wq5FVe9Nyy9I_SddA6Sb-15">
          <mxGeometry relative="1" as="geometry" />
        </mxCell>
        <mxCell id="pvVvnweU8bJruUa9JsGr-19" style="edgeStyle=orthogonalEdgeStyle;rounded=0;orthogonalLoop=1;jettySize=auto;html=1;" edge="1" parent="wq5FVe9Nyy9I_SddA6Sb-1" source="pvVvnweU8bJruUa9JsGr-6" target="wq5FVe9Nyy9I_SddA6Sb-63">
          <mxGeometry relative="1" as="geometry" />
        </mxCell>
        <mxCell id="pvVvnweU8bJruUa9JsGr-6" value="prompt&lt;div&gt;chain_query_validation&lt;/div&gt;" style="rounded=0;whiteSpace=wrap;html=1;fillColor=#1ba1e2;fontColor=#ffffff;strokeColor=#006EAF;" vertex="1" parent="wq5FVe9Nyy9I_SddA6Sb-1">
          <mxGeometry x="250" y="1139" width="140" height="50" as="geometry" />
        </mxCell>
        <mxCell id="pvVvnweU8bJruUa9JsGr-20" style="edgeStyle=orthogonalEdgeStyle;rounded=0;orthogonalLoop=1;jettySize=auto;html=1;entryX=0;entryY=0.5;entryDx=0;entryDy=0;" edge="1" parent="wq5FVe9Nyy9I_SddA6Sb-1" source="pvVvnweU8bJruUa9JsGr-7" target="wq5FVe9Nyy9I_SddA6Sb-64">
          <mxGeometry relative="1" as="geometry" />
        </mxCell>
        <mxCell id="pvVvnweU8bJruUa9JsGr-7" value="prompt&lt;div&gt;chain_final_response&lt;/div&gt;" style="rounded=0;whiteSpace=wrap;html=1;fillColor=#1ba1e2;fontColor=#ffffff;strokeColor=#006EAF;" vertex="1" parent="wq5FVe9Nyy9I_SddA6Sb-1">
          <mxGeometry x="250" y="1239" width="140" height="50" as="geometry" />
        </mxCell>
      </root>
    </mxGraphModel>
  </diagram>
</mxfile>
